<?xml version="1.0" standalone="no"?>
<!DOCTYPE svg PUBLIC "-//W3C//DTD SVG 20010904//EN"
 "http://www.w3.org/TR/2001/REC-SVG-20010904/DTD/svg10.dtd">
<svg version="1.0" xmlns="http://www.w3.org/2000/svg"
 width="512.000000pt" height="512.000000pt" viewBox="0 0 512.000000 512.000000"
 preserveAspectRatio="xMidYMid meet">
<metadata>
Created by potrace 1.14, written by Peter Selinger 2001-2017
</metadata>
<g transform="translate(0.000000,512.000000) scale(0.100000,-0.100000)"
fill="#000000" stroke="none">
<path d="M395 5106 c-167 -41 -304 -167 -370 -341 -19 -49 -20 -110 -22 -2180
-3 -2083 -3 -2132 16 -2200 28 -100 64 -161 142 -237 80 -78 167 -123 266
-138 46 -7 754 -10 2178 -8 l2110 3 57 21 c164 62 282 191 328 357 20 70 20
110 19 2182 0 2297 3 2157 -56 2270 -73 141 -192 235 -343 271 -78 19 -4249
19 -4325 0z"/>
</g>
</svg>
