<?xml version="1.0" standalone="no"?>
<!DOCTYPE svg PUBLIC "-//W3C//DTD SVG 20010904//EN"
 "http://www.w3.org/TR/2001/REC-SVG-20010904/DTD/svg10.dtd">
<svg version="1.0" xmlns="http://www.w3.org/2000/svg"
 width="300.000000pt" height="300.000000pt" viewBox="0 0 300.000000 300.000000"
 preserveAspectRatio="xMidYMid meet">
<metadata>
Created by potrace 1.14, written by Peter Selinger 2001-2017
</metadata>
<g transform="translate(0.000000,300.000000) scale(0.100000,-0.100000)"
fill="#000000" stroke="none">
<path d="M201 2980 c-29 -11 -60 -25 -69 -32 -58 -45 -94 -95 -116 -159 -14
-39 -15 -191 -13 -1304 l2 -1260 24 -48 c31 -64 84 -117 146 -147 l50 -25
1275 0 1275 0 47 22 c59 27 124 92 152 152 l21 46 0 1275 0 1275 -21 46 c-28
60 -90 122 -151 151 l-48 23 -1260 2 c-1222 2 -1262 2 -1314 -17z"/>
</g>
</svg>
