<?xml version="1.0" standalone="no"?>
<!DOCTYPE svg PUBLIC "-//W3C//DTD SVG 20010904//EN"
 "http://www.w3.org/TR/2001/REC-SVG-20010904/DTD/svg10.dtd">
<svg version="1.0" xmlns="http://www.w3.org/2000/svg"
 width="512.000000pt" height="512.000000pt" viewBox="0 0 512.000000 512.000000"
 preserveAspectRatio="xMidYMid meet">
<metadata>
Created by potrace 1.14, written by Peter Selinger 2001-2017
</metadata>
<g transform="translate(0.000000,512.000000) scale(0.100000,-0.100000)"
fill="#000000" stroke="none">
<path d="M393 5106 c-91 -22 -164 -65 -238 -140 -40 -40 -82 -95 -97 -126 -62
-126 -58 27 -58 -2280 0 -1871 2 -2112 16 -2165 49 -190 208 -346 392 -384 75
-16 4229 -16 4304 0 137 29 290 146 350 269 62 126 58 -27 58 2280 0 1871 -2
2112 -16 2165 -49 190 -208 346 -392 384 -81 17 -4248 14 -4319 -3z m1418
-1094 c82 -23 144 -59 202 -117 58 -58 90 -113 117 -205 19 -65 22 -91 18
-200 -10 -244 -75 -371 -434 -832 l-127 -163 294 -5 294 -5 0 -155 0 -155
-510 0 -510 0 -3 160 -2 160 165 215 c290 377 389 531 436 680 23 74 28 179
10 233 -36 108 -174 118 -226 17 -10 -19 -15 -59 -15 -118 0 -55 -5 -95 -13
-105 -11 -16 -31 -17 -187 -15 l-175 3 0 120 c1 135 16 195 70 280 40 63 127
142 185 168 129 59 287 73 411 39z m2177 -169 l2 -163 -216 -737 c-119 -406
-221 -746 -226 -756 -8 -16 -25 -17 -191 -15 -175 3 -182 4 -185 24 -2 16 110
408 413 1447 l14 48 -157 -3 -157 -3 -5 -60 -5 -60 -142 -3 -142 -3 -7 27 c-9
34 0 396 10 412 6 9 124 12 499 10 l492 -3 3 -162z m-1303 -412 c121 -55 154
-231 62 -329 -61 -66 -171 -83 -256 -40 -152 79 -134 329 28 378 46 14 125 10
166 -9z m20 -871 c52 -32 85 -87 92 -152 19 -186 -173 -300 -327 -195 -127 85
-107 292 35 359 54 25 149 20 200 -12z m-1275 -781 c60 -27 88 -54 116 -114
16 -34 24 -68 24 -108 l0 -58 -87 3 -88 3 -5 46 c-9 76 -56 112 -109 84 -32
-16 -41 -33 -41 -76 0 -51 25 -83 127 -164 176 -140 201 -173 210 -276 14
-153 -93 -270 -249 -271 -160 -1 -254 80 -266 229 l-5 63 92 0 91 0 0 -30 c0
-103 107 -143 149 -55 12 25 12 35 0 69 -11 32 -33 55 -109 114 -183 141 -220
195 -220 316 1 116 52 198 147 232 59 21 170 17 223 -7z m770 -64 l0 -74 -92
-3 -93 -3 -3 -387 -2 -388 -90 0 -90 0 -2 388 -3 387 -92 3 -93 3 0 74 0 75
280 0 280 0 0 -75z m280 -280 c0 -302 2 -361 15 -386 29 -54 93 -58 129 -7 14
20 16 69 16 386 l0 363 93 -3 92 -3 0 -365 c0 -274 -3 -374 -13 -402 -38 -108
-130 -170 -250 -170 -84 0 -143 23 -195 77 -65 66 -67 84 -67 497 l0 368 90 0
90 0 0 -355z m823 341 c59 -22 107 -64 133 -120 23 -50 24 -57 24 -331 0 -274
-1 -281 -24 -331 -13 -28 -39 -63 -58 -77 -67 -51 -95 -57 -273 -57 l-165 0 0
465 0 465 163 0 c109 -1 174 -5 200 -14z m405 -18 c5 -18 24 -93 43 -165 19
-73 37 -133 40 -133 7 0 29 76 70 243 l21 87 94 0 c75 0 94 -3 94 -14 0 -8
-43 -137 -95 -288 l-95 -273 0 -177 0 -178 -90 0 -90 0 0 180 0 181 -95 276
c-52 152 -95 280 -95 285 0 4 43 8 95 8 l94 0 9 -32z"/>
<path d="M3128 1634 c-5 -4 -8 -144 -8 -311 0 -340 -4 -323 72 -307 27 6 48
19 62 37 20 27 21 40 21 278 l0 249 -26 26 c-27 26 -105 45 -121 28z"/>
</g>
</svg>
